<?xml version="1.0" encoding="iso-8859-1"?>
<!-- Generator: Adobe Illustrator 24.2.3, SVG Export Plug-In . SVG Version: 6.00 Build 0)  -->
<svg version="1.1" id="Capa_1" xmlns="http://www.w3.org/2000/svg" xmlns:xlink="http://www.w3.org/1999/xlink" x="0px" y="0px"
	 viewBox="0 0 17.1 17.1" style="enable-background:new 0 0 17.1 17.1;" xml:space="preserve">
<g>
	<g>
		<g>
			<path style="fill:#00CEC9;" d="M8.7,0L8.7,0L8.7,0L8.7,0L8.7,0L8.7,0c2.3,0,4.4,0.9,6,2.4l1.8-1.8c0.1-0.1,0.2-0.1,0.3-0.1
				c0.1,0,0.2,0.2,0.2,0.3l-0.3,6.1H11l0,0c-0.2,0-0.3-0.1-0.3-0.3c0-0.1,0.1-0.2,0.1-0.3l1.7-1.8c-1-1-2.4-1.5-3.8-1.5
				c-3,0-5.4,2.5-5.4,5.5s2.5,5.4,5.5,5.4c2-0.1,3.8-1.3,4.7-3.2l2.8,1.3l0,0c-1.9,3.7-4.9,5.3-8.2,4.9c-4.4-0.3-7.8-4-7.9-8.5
				C0.2,3.9,4,0,8.7,0z"/>
		</g>
	</g>
</g>
</svg>
