<svg id="Layer_1" data-name="Layer 1" xmlns="http://www.w3.org/2000/svg" xmlns:xlink="http://www.w3.org/1999/xlink" viewBox="0 0 144.52 84.79"><defs><linearGradient id="linear-gradient" x1="-244.33" y1="450.72" x2="-244.33" y2="452.17" gradientTransform="matrix(-132.45, 0, 0, 74.89, -32296.1, -33751.14)" gradientUnits="userSpaceOnUse"><stop offset="0" stop-color="#bedcfa"/><stop offset="1" stop-color="#98acf8"/></linearGradient></defs><g id="PLAY"><path id="Path_6" data-name="Path 6" d="M144.52,0l-12,9.91V84.79l12-10.14Z" fill="#98acf8"/><path id="Exclusion_3" data-name="Exclusion 3" d="M132.49,84.79h0l12-10.14V0l-12,9.91Zm6-13.12c-.21,0-.46.52-.77,1.62-.7,2.47-1.2,3.48-1.74,3.48s-.9-.68-1.52-1.63c-.14-.22-.29-.44-.45-.67-.87-1.28.21-2.94,1.26-4.54s1.91-3,1.34-4.07c-.12-.24-.25-.48-.39-.73A7.59,7.59,0,0,1,135,61.65c0-1.35.91-2.46,2.73-3.41,2.19-1.13,3.3-2.34,3.2-3.48s-1.23-2-3.2-2.59c-.93-.29-1.43-.62-1.58-1s.19-1.1.67-1.84a6,6,0,0,0,1.28-3.76,16.11,16.11,0,0,0-.61-3.24c-.41-1.52-.7-2.61.24-4.28,1.51-2.69.78-3.85-1.11-5.71-1-.95-1.94-2-1.7-2.56.12-.3.57-.45,1.37-.45a10,10,0,0,1,1.44.11,4.63,4.63,0,0,0,.65,0c.68,0,1.09-.19,1.22-.56s-.19-1.39-1-2.45A13.7,13.7,0,0,0,136.08,24c-1.51-1.1-.89-2,.13-3.48a17.43,17.43,0,0,0,1.54-2.6c.87-1.91.32-2.18-.37-2.52a2.05,2.05,0,0,1-1.3-1.47,1,1,0,0,1,.07-.81,1.88,1.88,0,0,1,1.22-.54c.5-.1,1-.2,1.12-.54s0-.74-.37-1.37c-.48-.79-.63-1.35-.49-1.76s.92-.82,1.92-1.19a15.16,15.16,0,0,0,2.83-1.31,2,2,0,0,1,.87-.37.17.17,0,0,1,.16.07c.16.23-.15.94-.54,1.84-.67,1.54-1.59,3.65-.49,4.35s1.37,4.16,1.35,6.9a48.66,48.66,0,0,1-.6,7.43,9.63,9.63,0,0,1-.67,1.74c-.77,1.69-1.64,3.6-.08,6,.18.29.35.54.49.76,1,1.51,1,1.51.25,2.45a19,19,0,0,0-1.76,2.68c-1.46,2.7-1.21,3.3-.84,4.21a5.77,5.77,0,0,1,.47,2.87c-.09,2,.4,2.21.92,2.45s1.08.48,1.21,2.35-1.07,5.06-2,7.58c-.74,1.9-1.33,3.4-1.08,3.75a.18.18,0,0,0,.16.08.61.61,0,0,0,.27-.08,4.15,4.15,0,0,0,1.62-2.41c.16-.44.27-.75.4-.75s.35.58.67,2.07A4.43,4.43,0,0,1,141.79,67c-.76.82-1.36,1.46-.43,2.8.26.38.49.69.67.93.9,1.24.9,1.24.05,2.33-.27.34-.64.81-1.09,1.46-.29.41-.55.62-.78.62-.48,0-.77-.88-1-1.71,0-.11-.07-.23-.1-.34C138.92,72.31,138.75,71.67,138.52,71.67Z" fill="#fff" opacity="0.9" style="isolation:isolate"/><rect id="Top_Rect" data-name="Top Rect" x="0.8" y="9.62" width="131" height="75" fill="#d9ecff"/><path id="Path_19" data-name="Path 19" d="M40.72,48c.12,0,4.93,3.34,4.93,3.34a16.1,16.1,0,0,0-.59,2.27c.13,0,4.47.87,4.47.87l2.07-1.69L54,55.54,59.15,58" fill="none" stroke="#fff" stroke-width="0.5" opacity="0.6" style="isolation:isolate"/><path id="Path_9" data-name="Path 9" d="M66.26,2.51C29.69,2.51,0,10.39,0,20.11c0,8,37.17,19.08,44.14,17.34,9.47-2.33,11.45.71,17.85.71,14.12,0,10.55-11,38.87-12.24,23.27-6,31.59.16,31.59-5.81C132.49,10.39,102.84,2.51,66.26,2.51Z" fill="#e8ffff" opacity="0.7" style="isolation:isolate"/><g id="play-2"><path id="Path_28" data-name="Path 28" d="M59.23,24.2c-4.47-2.56-8.09-.46-8.09,4.69v38c0,5.15,3.62,7.25,8.09,4.69l33.19-19c4.46-2.56,4.46-6.71,0-9.27Z"/></g><path id="Path_14" data-name="Path 14" d="M36.32,71.85l1.81-6,3.73-.71L39,59.73" fill="none" stroke="#fff" stroke-width="0.5"/><path id="Path_16" data-name="Path 16" d="M4.16,46.73,7.9,43.47l4.46-.92-2.5-4.19,4.49,1.71,2.43-2.13,1.14,2.45,1.54-.32" fill="none" stroke="#fff" stroke-width="0.5"/><path id="Path_10" data-name="Path 10" d="M51.27,64.39c-14.71,6.28-21.52-.76-26.88-.74-6.78,0-10.47,8.2-15.06,8.9C-1.11,74.14,0,67,0,71.1c0,2.14-.62,7.47,4.45,9.33,10.72,4,35.87,3.4,61,3.4,22.84,0,45.1,1.55,57.05-2a11.83,11.83,0,0,0,8.4-10.76c0-3.79,2.28-9.58-11.43-11.95-6.07-1.06-16.8,1-32.79,6C67.14,68.26,74.91,61.25,51.27,64.39Z" fill="#bedcfa" opacity="0.6" style="isolation:isolate"/><path id="Path_11" data-name="Path 11" d="M131.78,24.14l-5.54,3.28.41,3.8-6.38,1.69,3.42.45-2.87,9.41" fill="none" stroke="#fff" stroke-width="0.5"/><path id="Path_17" data-name="Path 17" d="M115,82s-3-5.28-11.24-3.81A18.75,18.75,0,0,1,89.71,75" fill="none" stroke="#fff" stroke-width="0.5"/><path id="Path_20" data-name="Path 20" d="M9.52,12l7.41,3.76-4.85,1,6.7.42-3.92,2.65,4.78,1.11L22.85,22l-4.07,1.53,3,.63,1.42,2.58" fill="none" stroke="#fff" stroke-width="0.5"/><path id="Exclusion_1" data-name="Exclusion 1" d="M0,84.79H132.49V9.91H0ZM85,77.71h0c-4.82,0-7.44,1.14-10.76,2.57A55.86,55.86,0,0,1,66.9,83a19.22,19.22,0,0,1-5.23.69C56,83.68,50,81.61,43.6,79.42,40,78.18,36.25,76.89,32.54,76a25.06,25.06,0,0,0-6-.69,40.81,40.81,0,0,0-11.9,2.08l-2.37.76A21.18,21.18,0,0,1,7,79.49a2.29,2.29,0,0,1-.69-.08,2.11,2.11,0,0,1-1.52-1.1c-.47-1.2.67-3.14,2.4-6.07h0c.36-.6.72-1.23,1.11-1.9a4.16,4.16,0,0,0,.5-3.82c-1-2.24-4.34-3-4.37-3s-.8-.61-1.19-2.82c-.36-2-.45-5.86,1.19-12.62.59-2.45,1.32-4,2.21-4.86a2.83,2.83,0,0,1,2.11-.72c.46,0,.86,0,1.11-.32s.42-1.43.2-3.34-.77-5.21-1.77-10.2C6.69,20.74,6.6,16.28,8,14.56a2.66,2.66,0,0,1,2.23-.92,13.75,13.75,0,0,1,2.69.39l.11,0a14.54,14.54,0,0,0,3,.41,4.37,4.37,0,0,0,2.89-.92,4.85,4.85,0,0,1,3.09-1c3.1,0,7,2.07,9.72,3.81A51.23,51.23,0,0,1,37,20.18a3.62,3.62,0,0,1,.75-2.73c.9-1.09,2.49-1.64,4.72-1.64a20.25,20.25,0,0,1,3.64.38c1.72.32,3.13.65,4.37.93a27.45,27.45,0,0,0,6.74,1c3.81,0,9-1.05,19.22-3.87A36.29,36.29,0,0,1,86,12.79c8,0,12.5,3.47,16.16,6.26,2.29,1.74,4.27,3.24,6.46,3.32h.21c2.78,0,4.87-1.9,6.94-4l.37-.38c1.82-1.87,3.54-3.64,5.61-3.64a4.46,4.46,0,0,1,2.35.73c4.67,2.86,4.9,5.49,5.17,8.54a26.49,26.49,0,0,0,.34,2.66c.41,2.17-.51,5-1.41,7.77s-1.69,5.18-1.29,7a66.91,66.91,0,0,1,1.52,14.38,6.43,6.43,0,0,1-2.52,4.9c-1,.95-1.87,1.77-1.81,3.23,0,1.29.78,1.57,1.71,1.93,1.34.51,3.17,1.22,3.8,5.5.68,4.64-1.37,5.9-3.74,7.35a12,12,0,0,0-3.77,3.13c-.84,1.16-1.58,1.7-2.33,1.7s-1.62-.7-2.52-1.51a10.51,10.51,0,0,0-3.2-2.2,4,4,0,0,0-1.45-.27,7.79,7.79,0,0,0-4.49,1.93,15.77,15.77,0,0,0-2,1.93c0-.08-.3-.74-2.1-1.62s-5.3-2.08-12.38-3.11A47.86,47.86,0,0,0,85,77.71Z" fill="url(#linear-gradient)"/><path id="Exclusion_4" data-name="Exclusion 4" d="M0,84.79H132.49V9.91H0ZM61.2,80.61h0A39.37,39.37,0,0,0,52.37,82l-.48.11a44,44,0,0,1-10.27,1.52,24,24,0,0,1-7.29-1.1A40.44,40.44,0,0,0,22.4,80.39a24.08,24.08,0,0,0-7.53,1.26l-.7.21a3.35,3.35,0,0,1-1,.15,6.64,6.64,0,0,1-3.72-1.69l-.15-.11a7.38,7.38,0,0,0-4.23-1.79,4.91,4.91,0,0,0-.86.08,9.3,9.3,0,0,1-1.58.16c-.82,0-1.31-.2-1.51-.6-.45-.9.51-2.82,3.1-6.26,1.85-2.45,2.3-6.27,1.35-11.36a54.17,54.17,0,0,0-3.45-10.9C0,44.43-.49,41.87,3.74,37l.84-.95c3.48-3.93,3.54-4,.14-12.56-1.5-3.77-2-5.11-1.68-5.75.2-.39.72-.51,1.49-.71A14.35,14.35,0,0,0,9.9,14.62a11,11,0,0,1,6.62-1.95,31.68,31.68,0,0,1,5.74.68l.27.05a27.49,27.49,0,0,0,4.94.63,7.13,7.13,0,0,0,2.55-.4,4.17,4.17,0,0,1,1.56-.27c2,0,4.35,1.11,6.63,2.18l.07,0c2.31,1.09,4.7,2.22,6.8,2.22a4.34,4.34,0,0,0,2.92-1,17.1,17.1,0,0,1,11.31-4.43,21.36,21.36,0,0,1,7.07,1.3,14,14,0,0,0,4.57.86,13,13,0,0,0,5.74-1.56,12.05,12.05,0,0,1,4.8-1.44h.19A7.9,7.9,0,0,1,86,13.06l.17.1A7.08,7.08,0,0,0,90,14.62a6.82,6.82,0,0,0,3.9-1.54,6.14,6.14,0,0,1,3.19-1.5c1,0,1.5.92,2,2a6,6,0,0,0,2.84,3.19,5.85,5.85,0,0,0,2.4.55c1.64,0,3.24-.77,5.25-1.75a45.08,45.08,0,0,1,5.92-2.47,6.2,6.2,0,0,1,2-.36c2.65,0,3.72,2.29,4.74,4.51.86,1.85,1.66,3.59,3.32,4a1.58,1.58,0,0,0,.43,0c1.54,0,2.53-1.9,3.15-3.33.25-.59.47-1.19.66-1.71.35-.94.6-1.62.81-1.62s.35.65.5,2.17c.76,8,.16,13.85-1.74,16.85-1.3,2-.44,4.18.46,6.42a14.6,14.6,0,0,1,1.28,4.61,21.23,21.23,0,0,1-3.72,12.1c-1.23,1.78-.18,3,1.16,4.62a10.92,10.92,0,0,1,2.56,4.27c1.13,4.31-2.05,12.27-5.55,16.24a5.28,5.28,0,0,1-4.16,1.43C118.2,83.29,114.18,82,111,81a30.8,30.8,0,0,0-4-1.11,16.12,16.12,0,0,0-2.08-.12c-2.41,0-5.87.3-9.86.65-2.67.23-5.68.49-8.79.69l-2,.13c-3.87.26-6.92.47-10,.47a65.4,65.4,0,0,1-10.64-.9A14.59,14.59,0,0,0,61.2,80.61Z" fill="#fff" opacity="0.9" style="isolation:isolate"/><path id="Path_7" data-name="Path 7" d="M144.5,0H11.81L0,9.91H132.79Z" fill="#e4f5e5"/><path id="Exclusion_2" data-name="Exclusion 2" d="M0,9.91H132.79L144.5,0H11.81L0,9.91Zm111.34-5c-.94,0-1.77.61-3,1.53l-.27.2c-.43.31-.79.6-1.1.84-.95.75-1.47,1.16-2.31,1.16a5.24,5.24,0,0,1-1.47-.28c-1-.31-1.51-1.41-1.95-2.38s-.87-1.88-1.7-1.88a2,2,0,0,0-1,.36,5.69,5.69,0,0,0-2,1.73c-.29.41-.5.71-1.7,1.17l-.7.28a5.79,5.79,0,0,1-2.38.61,12.64,12.64,0,0,1-2.52-.35c-1.4-.28-2.12-1.72-2.76-3-.52-1-1-1.93-1.66-1.93a2.06,2.06,0,0,0-1.37.86,2.68,2.68,0,0,1-2,1.05,5.39,5.39,0,0,1-1.76-.46l-.18-.07a6.2,6.2,0,0,0-2.33-.54,6.12,6.12,0,0,0-3.25,1.1,6.84,6.84,0,0,1-3.44,1.35,2,2,0,0,1-2-1.8,1.6,1.6,0,0,0-1.61-1c-1.24,0-3,.85-5.08,2.51a10.39,10.39,0,0,1-6.47,2.44,8.29,8.29,0,0,1-4.19-1.08l.74-.3c1.5-.62,5-2.08,5.14-2.15h0l.06,0a2.83,2.83,0,0,0,.69-.5.26.26,0,0,0,.08-.27q-.14-.27-1.32-.27A65.66,65.66,0,0,0,47.8,4.94,66.32,66.32,0,0,1,39.27,6c-.58,0-.89-.06-.92-.2-.05-.31,1.43-.86,1.5-.89s1.3-.47,1.24-.83-.9-.42-2.52-.42c-1,0-2.35.05-4,.17-3.7.26-5.64.77-5.74,1.51S30.79,7,31,7h0a34.73,34.73,0,0,0-7-.84A14,14,0,0,0,18.69,7a6.11,6.11,0,0,1-2.31.51,4,4,0,0,1-3-1.3A2.29,2.29,0,0,1,12.69,5l0,0h.14a15.1,15.1,0,0,0,5.83-2,2.57,2.57,0,0,1,1.16-.41c.4,0,.56.26.74.57l.07.11a1.26,1.26,0,0,0,1.2.69,5.17,5.17,0,0,0,1.72-.42A5.34,5.34,0,0,1,25.5,3a2.9,2.9,0,0,1,1.15.25h0a3.27,3.27,0,0,0,1.23.26A11.21,11.21,0,0,0,32.34,2,9.86,9.86,0,0,1,36.75.87a7.7,7.7,0,0,1,4.18,1.31c.3.19.58.39.83.56a3.43,3.43,0,0,0,1.48.76h0a11.44,11.44,0,0,0,2-.56A34.49,34.49,0,0,1,56.18.86a21.92,21.92,0,0,1,2.92.19C67,2.08,70.42,2.33,73.2,2.5h.29a13.75,13.75,0,0,0,4.14-1l.17-.06a15.1,15.1,0,0,1,4.65-1,6.2,6.2,0,0,1,1,.07,9.1,9.1,0,0,1,4.27,2.43c1.08.9,2,1.69,3,1.69a1.73,1.73,0,0,0,.63-.13c.57-.23,1.24-.57,2-.93,1.87-1,4.21-2.13,6.3-2.13a5.1,5.1,0,0,1,.87.07,8.2,8.2,0,0,0,1.4.14,9.15,9.15,0,0,0,1.8-.23h0l.45-.09A18.25,18.25,0,0,1,107.68,1c.49,0,1,0,1.58,0,2.11.1,3.89.29,5.46.46,1.36.17,2.73.27,4.11.31a9.77,9.77,0,0,0,2.63-.32A18.11,18.11,0,0,1,126,1a16.72,16.72,0,0,1,6.42,1l.2.09c1.5.7,2.92,1.36,2.86,2.06,0,.52-.92,1-2.67,1.46a6.12,6.12,0,0,1-1.59.24,2.45,2.45,0,0,1-1.87-.71,4.23,4.23,0,0,1-.33-.41c-.13-.18-.22-.3-.32-.3s-.36.3-.78,1.18a1.56,1.56,0,0,1-1.44,1.06,6.66,6.66,0,0,1-2.8-1.13l-.06,0a6.91,6.91,0,0,0-3-1.16,1.66,1.66,0,0,0-.62.11,9.5,9.5,0,0,0-2,1.14,4.64,4.64,0,0,1-2.47,1.08A2.82,2.82,0,0,1,113.78,6,4,4,0,0,0,111.38,4.94Z" fill="#fff" opacity="0.9" style="isolation:isolate"/><ellipse id="Ellipse_1-2" data-name="Ellipse 1-2" cx="113.4" cy="67.23" rx="1.89" ry="1.85" fill="#fff"/><ellipse id="Ellipse_25-2" data-name="Ellipse 25-2" cx="59.96" cy="71.85" rx="1.89" ry="1.85" fill="#fff"/><ellipse id="Ellipse_2-2" data-name="Ellipse 2-2" cx="114.33" cy="70.93" rx="0.94" ry="0.93" fill="#fff"/><ellipse id="Ellipse_26-2" data-name="Ellipse 26-2" cx="110.64" cy="41.35" rx="0.94" ry="0.93" fill="#fff"/><ellipse id="Ellipse_16-2" data-name="Ellipse 16-2" cx="10.43" cy="49.67" rx="0.94" ry="0.93" fill="#fff"/><ellipse id="Ellipse_17-2" data-name="Ellipse 17-2" cx="74.68" cy="31.18" rx="0.94" ry="0.93" fill="#fff"/><ellipse id="Ellipse_18-2" data-name="Ellipse 18-2" cx="53.47" cy="59.84" rx="0.94" ry="0.93" fill="#fff"/><ellipse id="Ellipse_3-2" data-name="Ellipse 3-2" cx="113.88" cy="73.23" rx="0.47" ry="0.46" fill="#fff"/><ellipse id="Ellipse_27-2" data-name="Ellipse 27-2" cx="111.11" cy="43.65" rx="0.47" ry="0.46" fill="#fff"/><ellipse id="Ellipse_28-2" data-name="Ellipse 28-2" cx="124.45" cy="48.27" rx="0.47" ry="0.46" fill="#fff"/><ellipse id="Ellipse_30-2" data-name="Ellipse 30-2" cx="98.21" cy="46.42" rx="0.47" ry="0.46" fill="#fff"/><ellipse id="Ellipse_31-2" data-name="Ellipse 31-2" cx="29.07" cy="40.88" rx="0.47" ry="0.46" fill="#fff"/><ellipse id="Ellipse_29-2" data-name="Ellipse 29-2" cx="123.5" cy="27.01" rx="0.47" ry="0.46" fill="#fff"/><ellipse id="Ellipse_19-2" data-name="Ellipse 19-2" cx="67.76" cy="67.69" rx="0.47" ry="0.46" fill="#fff"/><ellipse id="Ellipse_20-2" data-name="Ellipse 20-2" cx="92.69" cy="53.82" rx="0.47" ry="0.46" fill="#fff"/><ellipse id="Ellipse_21-2" data-name="Ellipse 21-2" cx="82.54" cy="66.76" rx="0.47" ry="0.46" fill="#fff"/><ellipse id="Ellipse_22-2" data-name="Ellipse 22-2" cx="85.3" cy="26.08" rx="0.47" ry="0.46" fill="#fff"/><ellipse id="Ellipse_23-2" data-name="Ellipse 23-2" cx="59.49" cy="44.57" rx="0.47" ry="0.46" fill="#fff"/><ellipse id="Ellipse_15-2" data-name="Ellipse 15-2" cx="100.05" cy="24.23" rx="0.47" ry="0.46" fill="#fff"/><path id="Path_15" data-name="Path 15" d="M41.7,65.23l4.12,1.65,1.26-2.67,2.7-.5" fill="none" stroke="#fff" stroke-width="0.5"/><path id="Path_18" data-name="Path 18" d="M91,27.38,88.5,31.21l-2.83-.91-1,2.55L81,35l-.31-3.6-2.45,2.51" fill="none" stroke="#fff" stroke-width="0.5" opacity="0.6" style="isolation:isolate"/><ellipse id="Ellipse_6" data-name="Ellipse 6" cx="121.14" cy="70.93" rx="0.94" ry="0.93" fill="#5b5b5b" opacity="0.35" style="isolation:isolate"/><ellipse id="Ellipse_12" data-name="Ellipse 12" cx="119.72" cy="72.31" rx="0.47" ry="0.46" fill="#5b5b5b" opacity="0.35" style="isolation:isolate"/><ellipse id="Ellipse_9" data-name="Ellipse 9" cx="49.82" cy="77.4" rx="0.94" ry="0.93" fill="#5b5b5b" opacity="0.35" style="isolation:isolate"/><ellipse id="Ellipse_10" data-name="Ellipse 10" cx="78.85" cy="20.54" rx="0.47" ry="0.46" fill="#5b5b5b" opacity="0.35" style="isolation:isolate"/><ellipse id="Ellipse_11" data-name="Ellipse 11" cx="118.78" cy="22.39" rx="0.47" ry="0.46" fill="#5b5b5b" opacity="0.35" style="isolation:isolate"/><ellipse id="Ellipse_7" data-name="Ellipse 7" cx="14.69" cy="63.07" rx="1.42" ry="1.39" fill="#5b5b5b" opacity="0.35" style="isolation:isolate"/><ellipse id="Ellipse_13" data-name="Ellipse 13" cx="16.11" cy="59.83" rx="0.94" ry="0.93" fill="#5b5b5b" opacity="0.35" style="isolation:isolate"/><ellipse id="Ellipse_14" data-name="Ellipse 14" cx="18.47" cy="58.44" rx="0.47" ry="0.46" fill="#5b5b5b" opacity="0.35" style="isolation:isolate"/><ellipse id="Ellipse_8" data-name="Ellipse 8" cx="38.29" cy="28.86" rx="0.47" ry="0.46" fill="#5b5b5b" opacity="0.35" style="isolation:isolate"/><ellipse id="Ellipse_32" data-name="Ellipse 32" cx="33.68" cy="49.2" rx="0.47" ry="0.46" fill="#5b5b5b" opacity="0.35" style="isolation:isolate"/><ellipse id="Ellipse_33" data-name="Ellipse 33" cx="67.79" cy="47.35" rx="0.47" ry="0.46" fill="#5b5b5b" opacity="0.35" style="isolation:isolate"/><ellipse id="Ellipse_34" data-name="Ellipse 34" cx="86.23" cy="46.43" rx="0.47" ry="0.46" fill="#5b5b5b" opacity="0.35" style="isolation:isolate"/><ellipse id="Ellipse_39" data-name="Ellipse 39" cx="133.91" cy="41.8" rx="0.47" ry="0.46" fill="#5b5b5b" opacity="0.35" style="isolation:isolate"/><ellipse id="Ellipse_40" data-name="Ellipse 40" cx="143.36" cy="28.86" rx="0.47" ry="0.46" fill="#5b5b5b" opacity="0.35" style="isolation:isolate"/><ellipse id="Ellipse_41" data-name="Ellipse 41" cx="142.42" cy="5.75" rx="0.47" ry="0.46" fill="#5b5b5b" opacity="0.35" style="isolation:isolate"/><ellipse id="Ellipse_38" data-name="Ellipse 38" cx="86.23" cy="78.78" rx="0.47" ry="0.46" fill="#5b5b5b" opacity="0.35" style="isolation:isolate"/><ellipse id="Ellipse_36" data-name="Ellipse 36" cx="95.44" cy="26.08" rx="0.47" ry="0.46" fill="#5b5b5b" opacity="0.35" style="isolation:isolate"/><ellipse id="Ellipse_43" data-name="Ellipse 43" cx="12.8" cy="28.86" rx="0.47" ry="0.46" fill="#5b5b5b" opacity="0.35" style="isolation:isolate"/><ellipse id="Ellipse_4-2" data-name="Ellipse 4-2" cx="48.01" cy="24.7" rx="4.73" ry="1.85" fill="#fff"/><ellipse id="Ellipse_5-2" data-name="Ellipse 5-2" cx="53.97" cy="27.48" rx="2.36" ry="0.93" fill="#fff"/></g></svg>